<svg width="0" height="0" class="hidden">
  <symbol fill="none" xmlns="http://www.w3.org/2000/svg" viewBox="0 0 235 138" id="logo">
    <path fill-rule="evenodd" clip-rule="evenodd" d="M93.719 108.427c0 4.683-2.982 7.281-7.972 7.281h-9.994V92.444H91.99v4.517H80.475v4.312h5.476c5.119 0 7.678 2.432 7.678 7.141l.09.013zm-4.876-.077c0-1.856-.895-2.726-3.122-2.726h-5.22v5.554h5.118c2.226 0 3.352-.96 3.352-2.828h-.128zm15.445 7.345h-5.31l4.184-8.036-8.01-15.215h5.322l5.349 10.071 5.208-10.071h5.311l-12.054 23.251zm35.189 4.594v-9.111h-3.288V92.444h-15.023l-2.495 15.65a5.635 5.635 0 01-1.126 3.084h-3.289v9.111h4.747v-4.594h15.727v4.594h4.747zm-8.074-9.111h-8.702c.283-.855.492-1.733.628-2.623l1.855-11.594h6.219v14.217zm18.145 4.517h-5.324l4.185-8.036-7.998-15.215h5.311l5.348 10.071 5.221-10.071h5.31l-12.053 23.251zm47.473 4.62v-9.137h-3.519V92.444h-4.76v18.734h-7.268V92.444h-4.76v18.734h-7.269V92.444h-4.747v23.251h27.563v4.62h4.76zm7.883-23.354v4.683h9.955v4.518h-9.955v5.016h10.863v4.517h-15.624V92.444h15.624v4.517h-10.863zm19.232 4.683v-4.683H235v-4.517h-15.611v23.251H235v-4.517h-10.864v-5.016h9.968v-4.518h-9.968zm-55.33 34.769v-7.499l-1.05.013-4.235 6.309.077-3.174v-3.135h-.896v7.499h1.088l4.197-6.322-.077 3.174v3.135h.896zm-4.786-10.25v.192a1.727 1.727 0 003.442 0v-.192h-.729v.166a.998.998 0 01-1.984 0v-.166h-.729zm-61.112 5.032a3.76 3.76 0 00-.27 1.482l.012.153a3.774 3.774 0 002.358 3.568c.47.189.974.282 1.481.271a3.656 3.656 0 003.557-2.559h-.972a2.791 2.791 0 01-2.559 1.663 3.022 3.022 0 010-6.04 2.794 2.794 0 012.559 1.664h.96a3.66 3.66 0 00-3.558-2.559 3.75 3.75 0 00-2.737 1.101 3.767 3.767 0 00-.831 1.256zm-21.474 5.231h.883v-7.512h-6.129v7.512h.896v-6.654h4.35v6.654zm5.17-4.287v-2.367h3.877v-.858h-4.76v7.512h4.76v-.857h-3.877v-2.573h3.621v-.857h-3.62zm12.937-3.225v7.512h-.896v-3.455h-4.35v3.455h-.884v-7.512h.883v3.212h4.351v-3.212h.896zm19.527 0v7.512h-.883v-3.148l.076-3.174-4.235 6.322h-1.101v-7.512h.896v3.148l-.077 3.174 4.236-6.322h1.088zm10.102 5.895a3.843 3.843 0 00-.478-4.847 3.838 3.838 0 10.478 4.847zm-5.662-.497a2.974 2.974 0 01-.525-1.636 2.94 2.94 0 011.817-2.796 2.956 2.956 0 011.152-.224 2.968 2.968 0 11-2.444 4.656zm15.521-5.398v7.512h-.895v-3.455h-4.351v3.455h-.883v-7.512h.883v3.212h4.351v-3.212h.895zm9.533 7.512v-7.512h-.895v3.212h-4.351v-3.212h-.896v7.512h.896v-3.455h4.351v3.455h.895zm8.958-2.265c0 1.356-.87 2.265-2.56 2.265h-3.032v-7.499h.896v2.995h2.175c1.676 0 2.559.895 2.559 2.252l-.038-.013zm-.858.013c0-.832-.486-1.408-1.625-1.408h-2.149v2.828h2.111c1.152 0 1.663-.601 1.663-1.42zm2.816 2.278h-.896v-7.499h.896v7.499zm25.604-3.852a2.786 2.786 0 01-1.863 2.678c-.367.129-.756.18-1.144.15h-.742v.998h-.908v-.998h-.755a2.85 2.85 0 01-2.181-.726 2.84 2.84 0 010-4.204 2.844 2.844 0 012.181-.726h.755v-.845h.883v.845h.742a2.775 2.775 0 012.129.749 2.781 2.781 0 01.878 2.079h.025zm-4.657 1.983v-3.967h-.755a1.992 1.992 0 00-1.403.581 1.988 1.988 0 00-.43 2.162 1.995 1.995 0 001.074 1.073c.24.1.498.151.759.151h.755zm3.749-1.983a1.938 1.938 0 00-.613-1.473 1.933 1.933 0 00-1.511-.511h-.742v3.967h.742a1.924 1.924 0 001.511-.51 1.941 1.941 0 00.613-1.473zm10.754 2.209a3.836 3.836 0 00-.477-4.847 3.84 3.84 0 00-4.848-.478 3.84 3.84 0 105.325 5.325zm-5.661-.497a2.974 2.974 0 01-.525-1.636 2.94 2.94 0 011.816-2.796 2.96 2.96 0 011.153-.224 2.97 2.97 0 012.737 1.822 2.964 2.964 0 01-.621 3.229 2.974 2.974 0 01-3.217.676 2.968 2.968 0 01-1.343-1.071zm15.521-5.398v7.512h-.895v-3.455h-4.351v3.455h-.883v-7.512h.883v3.212h4.351v-3.212h.895zM215.639 138v-2.419l-1.062.039v-6.654h-4.478l-.845 5.118c-.141.87-.294 1.305-.563 1.497h-1.075V138h.883v-1.574h6.245V138h.895zm-1.945-2.419h-3.992c.238-.449.385-.94.435-1.446l.717-4.363h2.84v5.809z" fill="#292929"></path>
    <path fill-rule="evenodd" clip-rule="evenodd" d="M57.467 0h-2.764v67.567h2.764V0zM15.233 30.327l-1.95 1.959 38.016 37.846 1.95-1.96-38.016-37.845zm43.684 37.81L124.263 2.79l1.954 1.954-65.346 65.35-1.954-1.955zm-7.655 7.656l-37.477 37.48 1.954 1.954 37.477-37.48-1.954-1.954zm7.697 1.967l1.95-1.96 10.765 10.717-1.95 1.96L58.959 77.76zm-1.492.62h-2.764v37.328h2.764V78.38zM0 71.546h50.685v2.764H0v-2.764z" fill="#587DC7"></path>
  </symbol>
  <symbol viewBox="0 0 196 196" fill="none" xmlns="http://www.w3.org/2000/svg" id="account">
<path d="M97.8829 49.4116C91.8765 49.4116 86.005 51.1927 81.0109 54.5297C76.0168 57.8666 72.1244 62.6096 69.8259 68.1587C67.5273 73.7079 66.9259 79.814 68.0977 85.7049C69.2695 91.5959 72.1618 97.0071 76.409 101.254C80.6561 105.501 86.0673 108.394 91.9582 109.565C97.8492 110.737 103.955 110.136 109.504 107.837C115.054 105.539 119.797 101.646 123.134 96.6523C126.47 91.6581 128.252 85.7867 128.252 79.7803C128.252 71.726 125.052 64.0016 119.357 58.3064C113.662 52.6112 105.937 49.4116 97.8829 49.4116ZM97.8829 98.0015C94.2791 98.0015 90.7562 96.9329 87.7597 94.9307C84.7632 92.9285 82.4278 90.0828 81.0487 86.7533C79.6695 83.4238 79.3087 79.7601 80.0118 76.2255C80.7148 72.691 82.4502 69.4442 84.9985 66.896C87.5468 64.3477 90.7935 62.6123 94.3281 61.9092C97.8627 61.2061 101.526 61.567 104.856 62.9461C108.185 64.3252 111.031 66.6607 113.033 69.6571C115.035 72.6536 116.104 76.1765 116.104 79.7803C116.099 84.6112 114.177 89.2427 110.761 92.6586C107.345 96.0746 102.714 97.9961 97.8829 98.0015Z" fill="black"/>
<path d="M97.8828 12.9692C81.065 12.9692 64.6249 17.9563 50.6414 27.2998C36.6579 36.6432 25.7591 49.9235 19.3232 65.4611C12.8873 80.9987 11.2034 98.0959 14.4844 114.591C17.7654 131.085 25.8639 146.237 37.7559 158.129C49.6479 170.02 64.7992 178.119 81.2939 181.4C97.7885 184.681 114.886 182.997 130.423 176.561C145.961 170.125 159.241 159.226 168.585 145.243C177.928 131.26 182.915 114.819 182.915 98.0016C182.89 75.4574 173.923 53.8438 157.982 37.9027C142.041 21.9615 120.427 12.9946 97.8828 12.9692ZM61.4404 161.026V152.665C61.4457 147.834 63.3671 143.203 66.7831 139.787C70.1991 136.371 74.8307 134.449 79.6616 134.444H116.104C120.935 134.449 125.567 136.371 128.983 139.787C132.399 143.203 134.32 147.834 134.325 152.665V161.026C123.266 167.483 110.689 170.886 97.8828 170.886C85.0762 170.886 72.4997 167.483 61.4404 161.026ZM146.427 152.215C146.306 144.247 143.06 136.646 137.388 131.05C131.716 125.454 124.072 122.31 116.104 122.297H79.6616C71.6935 122.31 64.0497 125.454 58.3776 131.05C52.7055 136.646 49.4592 144.247 49.3385 152.215C38.3241 142.38 30.5568 129.431 27.0651 115.084C23.5733 100.736 24.5218 85.6667 29.7849 71.8703C35.0481 58.0739 44.3776 46.2015 56.5381 37.8252C68.6987 29.4489 83.1166 24.9638 97.8828 24.9638C112.649 24.9638 127.067 29.4489 139.228 37.8252C151.388 46.2015 160.718 58.0739 165.981 71.8703C171.244 85.6667 172.192 100.736 168.701 115.084C165.209 129.431 157.442 142.38 146.427 152.215Z" fill="black"/>
</symbol>

</svg>